<?xml version="1.0" encoding="UTF-8" standalone="no"?>
<!DOCTYPE svg PUBLIC "-//W3C//DTD SVG 1.1//EN"
 "http://www.w3.org/Graphics/SVG/1.1/DTD/svg11.dtd">
<!-- Generated by graphviz version 2.26.3 (20100126.1600)
 -->
<!-- Title: models_diagram Pages: 1 -->
<svg width="3326pt" height="458pt"
 viewBox="0.00 0.00 3326.00 458.00" xmlns="http://www.w3.org/2000/svg" xmlns:xlink="http://www.w3.org/1999/xlink">
<g id="graph1" class="graph" transform="scale(1 1) rotate(0) translate(4 454)">
<title>models_diagram</title>
<polygon fill="white" stroke="white" points="-4,5 -4,-454 3323,-454 3323,5 -4,5"/>
<!-- _diagram_info -->
<g id="node1" class="node"><title>_diagram_info</title>
<text text-anchor="start" x="503" y="-433.8" font-family="Times Roman,serif" font-size="13.00">Models diagram</text>
<text text-anchor="start" x="503" y="-416.8" font-family="Times Roman,serif" font-size="13.00">Date: Apr 21 2011 &#45; 11:14</text>
<text text-anchor="start" x="503" y="-399.8" font-family="Times Roman,serif" font-size="13.00">Migration version: 20110420151009</text>
<text text-anchor="start" x="503" y="-382.8" font-family="Times Roman,serif" font-size="13.00">Generated by RailRoady 1.0.1</text>
<text text-anchor="start" x="503" y="-365.8" font-family="Times Roman,serif" font-size="13.00">http://railroady.prestonlee.com</text>
</g>
<!-- ViewCondition -->
<g id="node2" class="node"><title>ViewCondition</title>
<ellipse fill="none" stroke="black" cx="608" cy="-223" rx="82.2301" ry="18.3848"/>
<text text-anchor="middle" x="608" y="-219.4" font-family="Times Roman,serif" font-size="14.00">ViewCondition</text>
</g>
<!-- ModelComponent -->
<g id="node3" class="node"><title>ModelComponent</title>
<ellipse fill="none" stroke="black" cx="1343" cy="-223" rx="96.8736" ry="18.3848"/>
<text text-anchor="middle" x="1343" y="-219.4" font-family="Times Roman,serif" font-size="14.00">ModelComponent</text>
</g>
<!-- ModelDatum -->
<g id="node40" class="node"><title>ModelDatum</title>
<ellipse fill="none" stroke="black" cx="1345" cy="-111" rx="73.0388" ry="18.3848"/>
<text text-anchor="middle" x="1345" y="-107.4" font-family="Times Roman,serif" font-size="14.00">ModelDatum</text>
</g>
<!-- ModelComponent&#45;&gt;ModelDatum -->
<g id="edge2" class="edge"><title>ModelComponent&#45;&gt;ModelDatum</title>
<path fill="none" stroke="black" d="M1342.65,-195.824C1342.55,-181.58 1342.57,-163.845 1343,-148 1343.07,-145.412 1343.17,-142.723 1343.28,-140.028"/>
<ellipse fill="none" stroke="black" cx="1342.68" cy="-200.195" rx="4" ry="4"/>
<polygon fill="black" stroke="black" points="1343.29,-139.803 1348.28,-130.037 1343.54,-134.809 1343.79,-129.815 1343.79,-129.815 1343.79,-129.815 1343.54,-134.809 1339.29,-129.593 1343.29,-139.803 1343.29,-139.803"/>
<text text-anchor="middle" x="1386.5" y="-163.4" font-family="Times Roman,serif" font-size="14.00">model_datas</text>
</g>
<!-- PermissionRole -->
<g id="node4" class="node"><title>PermissionRole</title>
<ellipse fill="none" stroke="black" cx="1788" cy="-299" rx="84.1457" ry="18.3848"/>
<text text-anchor="middle" x="1788" y="-295.4" font-family="Times Roman,serif" font-size="14.00">PermissionRole</text>
</g>
<!-- UserDetail -->
<g id="node5" class="node"><title>UserDetail</title>
<ellipse fill="none" stroke="black" cx="1991" cy="-223" rx="62.9325" ry="18.3848"/>
<text text-anchor="middle" x="1991" y="-219.4" font-family="Times Roman,serif" font-size="14.00">UserDetail</text>
</g>
<!-- Ckeditor::AttachmentFile -->
<g id="node6" class="node"><title>Ckeditor::AttachmentFile</title>
<ellipse fill="none" stroke="black" cx="2325" cy="-299" rx="132.936" ry="18.3848"/>
<text text-anchor="middle" x="2325" y="-295.4" font-family="Times Roman,serif" font-size="14.00">Ckeditor::AttachmentFile</text>
</g>
<!-- Ckeditor::Picture -->
<g id="node7" class="node"><title>Ckeditor::Picture</title>
<ellipse fill="none" stroke="black" cx="2569" cy="-299" rx="92.839" ry="18.3848"/>
<text text-anchor="middle" x="2569" y="-295.4" font-family="Times Roman,serif" font-size="14.00">Ckeditor::Picture</text>
</g>
<!-- Ckeditor::Asset -->
<g id="node8" class="node"><title>Ckeditor::Asset</title>
<ellipse fill="none" stroke="black" cx="2447" cy="-403" rx="85.0596" ry="18.3848"/>
<text text-anchor="middle" x="2447" y="-399.4" font-family="Times Roman,serif" font-size="14.00">Ckeditor::Asset</text>
</g>
<!-- Ckeditor::Asset&#45;&gt;Ckeditor::AttachmentFile -->
<g id="edge4" class="edge"><title>Ckeditor::Asset&#45;&gt;Ckeditor::AttachmentFile</title>
<path fill="none" stroke="black" d="M2425.75,-384.885C2403.63,-366.029 2369.16,-336.645 2346.83,-317.608"/>
</g>
<!-- Ckeditor::Asset&#45;&gt;Ckeditor::Picture -->
<g id="edge6" class="edge"><title>Ckeditor::Asset&#45;&gt;Ckeditor::Picture</title>
<path fill="none" stroke="black" d="M2468.25,-384.885C2490.51,-365.912 2525.27,-336.282 2547.58,-317.257"/>
</g>
<!-- View -->
<g id="node9" class="node"><title>View</title>
<ellipse fill="none" stroke="black" cx="416" cy="-299" rx="36.0624" ry="18.3848"/>
<text text-anchor="middle" x="416" y="-295.4" font-family="Times Roman,serif" font-size="14.00">View</text>
</g>
<!-- View&#45;&gt;ViewCondition -->
<g id="edge10" class="edge"><title>View&#45;&gt;ViewCondition</title>
<path fill="none" stroke="black" d="M452.315,-284.625C482.147,-272.817 524.725,-255.963 557.815,-242.865"/>
<ellipse fill="none" stroke="black" cx="448.464" cy="-286.15" rx="4.00001" ry="4.00001"/>
<polygon fill="black" stroke="black" points="558.018,-242.785 568.972,-243.288 562.667,-240.944 567.316,-239.104 567.316,-239.104 567.316,-239.104 562.667,-240.944 565.659,-234.92 558.018,-242.785 558.018,-242.785"/>
</g>
<!-- CategoryView -->
<g id="node15" class="node"><title>CategoryView</title>
<ellipse fill="none" stroke="black" cx="80" cy="-223" rx="80.1095" ry="18.3848"/>
<text text-anchor="middle" x="80" y="-219.4" font-family="Times Roman,serif" font-size="14.00">CategoryView</text>
</g>
<!-- View&#45;&gt;CategoryView -->
<g id="edge22" class="edge"><title>View&#45;&gt;CategoryView</title>
<path fill="none" stroke="black" d="M382.863,-291.505C325.745,-278.585 208.089,-251.972 137.414,-235.986"/>
</g>
<!-- ViewOrder -->
<g id="node21" class="node"><title>ViewOrder</title>
<ellipse fill="none" stroke="black" cx="242" cy="-223" rx="63.8479" ry="18.3848"/>
<text text-anchor="middle" x="242" y="-219.4" font-family="Times Roman,serif" font-size="14.00">ViewOrder</text>
</g>
<!-- View&#45;&gt;ViewOrder -->
<g id="edge12" class="edge"><title>View&#45;&gt;ViewOrder</title>
<path fill="none" stroke="black" d="M381.085,-283.75C353.957,-271.901 316.137,-255.382 286.782,-242.56"/>
<ellipse fill="none" stroke="black" cx="384.764" cy="-285.356" rx="4.00002" ry="4.00002"/>
<polygon fill="black" stroke="black" points="286.737,-242.54 279.374,-234.414 282.155,-240.539 277.573,-238.538 277.573,-238.538 277.573,-238.538 282.155,-240.539 275.772,-242.661 286.737,-242.54 286.737,-242.54"/>
</g>
<!-- ViewComponent -->
<g id="node37" class="node"><title>ViewComponent</title>
<ellipse fill="none" stroke="black" cx="416" cy="-223" rx="92.1303" ry="18.3848"/>
<text text-anchor="middle" x="416" y="-219.4" font-family="Times Roman,serif" font-size="14.00">ViewComponent</text>
</g>
<!-- View&#45;&gt;ViewComponent -->
<g id="edge8" class="edge"><title>View&#45;&gt;ViewComponent</title>
<path fill="none" stroke="black" d="M416,-272.073C416,-265.449 416,-258.332 416,-251.63"/>
<ellipse fill="none" stroke="black" cx="416" cy="-276.213" rx="4" ry="4"/>
<polygon fill="black" stroke="black" points="416,-251.57 420.5,-241.57 416,-246.57 416,-241.57 416,-241.57 416,-241.57 416,-246.57 411.5,-241.57 416,-251.57 416,-251.57"/>
</g>
<!-- PageVariable -->
<g id="node10" class="node"><title>PageVariable</title>
<ellipse fill="none" stroke="black" cx="960" cy="-299" rx="74.2462" ry="18.3848"/>
<text text-anchor="middle" x="960" y="-295.4" font-family="Times Roman,serif" font-size="14.00">PageVariable</text>
</g>
<!-- CommentComponent -->
<g id="node11" class="node"><title>CommentComponent</title>
<ellipse fill="none" stroke="black" cx="1200" cy="-167" rx="114.759" ry="18.3848"/>
<text text-anchor="middle" x="1200" y="-163.4" font-family="Times Roman,serif" font-size="14.00">CommentComponent</text>
</g>
<!-- CommentDatum -->
<g id="node48" class="node"><title>CommentDatum</title>
<ellipse fill="none" stroke="black" cx="1254" cy="-19" rx="92.1303" ry="18.3848"/>
<text text-anchor="middle" x="1254" y="-15.4" font-family="Times Roman,serif" font-size="14.00">CommentDatum</text>
</g>
<!-- CommentComponent&#45;&gt;CommentDatum -->
<g id="edge16" class="edge"><title>CommentComponent&#45;&gt;CommentDatum</title>
<path fill="none" stroke="black" d="M1163.69,-143.511C1159.79,-139.481 1156.38,-134.968 1154,-130 1146.7,-114.768 1146.35,-107.057 1154,-92 1165.24,-69.882 1186.67,-52.8692 1206.82,-40.8542"/>
<ellipse fill="none" stroke="black" cx="1166.76" cy="-146.35" rx="4.00002" ry="4.00002"/>
<polygon fill="black" stroke="black" points="1206.95,-40.7827 1217.86,-39.7621 1211.29,-38.3154 1215.64,-35.8481 1215.64,-35.8481 1215.64,-35.8481 1211.29,-38.3154 1213.42,-31.9342 1206.95,-40.7827 1206.95,-40.7827"/>
<text text-anchor="middle" x="1208.5" y="-107.4" font-family="Times Roman,serif" font-size="14.00">comment_datas</text>
</g>
<!-- User -->
<g id="node12" class="node"><title>User</title>
<ellipse fill="none" stroke="black" cx="1924" cy="-299" rx="33.9411" ry="18.3848"/>
<text text-anchor="middle" x="1924" y="-295.4" font-family="Times Roman,serif" font-size="14.00">User</text>
</g>
<!-- User&#45;&gt;UserDetail -->
<g id="edge18" class="edge"><title>User&#45;&gt;UserDetail</title>
<path fill="none" stroke="black" d="M1944.41,-275.844C1951.93,-267.315 1960.49,-257.603 1968.21,-248.852"/>
<ellipse fill="none" stroke="black" cx="1941.51" cy="-279.133" rx="4.00002" ry="4.00002"/>
<polygon fill="black" stroke="black" points="1968.39,-248.648 1978.38,-244.122 1971.7,-244.897 1975,-241.147 1975,-241.147 1975,-241.147 1971.7,-244.897 1971.63,-238.171 1968.39,-248.648 1968.39,-248.648"/>
</g>
<!-- Permission -->
<g id="node13" class="node"><title>Permission</title>
<ellipse fill="none" stroke="black" cx="1788" cy="-403" rx="63.1385" ry="18.3848"/>
<text text-anchor="middle" x="1788" y="-399.4" font-family="Times Roman,serif" font-size="14.00">Permission</text>
</g>
<!-- Permission&#45;&gt;PermissionRole -->
<g id="edge20" class="edge"><title>Permission&#45;&gt;PermissionRole</title>
<path fill="none" stroke="black" d="M1788,-375.926C1788,-361.224 1788,-343.041 1788,-328.044"/>
<ellipse fill="none" stroke="black" cx="1788" cy="-380.407" rx="4" ry="4"/>
<polygon fill="black" stroke="black" points="1788,-327.783 1792.5,-317.783 1788,-322.783 1788,-317.783 1788,-317.783 1788,-317.783 1788,-322.783 1783.5,-317.783 1788,-327.783 1788,-327.783"/>
</g>
<!-- Categorization -->
<g id="node14" class="node"><title>Categorization</title>
<ellipse fill="none" stroke="black" cx="1839" cy="-111" rx="84.1457" ry="18.3848"/>
<text text-anchor="middle" x="1839" y="-107.4" font-family="Times Roman,serif" font-size="14.00">Categorization</text>
</g>
<!-- Category -->
<g id="node16" class="node"><title>Category</title>
<ellipse fill="none" stroke="black" cx="1554" cy="-299" rx="56.0679" ry="18.3848"/>
<text text-anchor="middle" x="1554" y="-295.4" font-family="Times Roman,serif" font-size="14.00">Category</text>
</g>
<!-- Category&#45;&gt;Categorization -->
<g id="edge24" class="edge"><title>Category&#45;&gt;Categorization</title>
<path fill="none" stroke="black" d="M1592.2,-279.538C1612.15,-269.005 1636.77,-255.428 1658,-242 1712.63,-207.449 1772.83,-162.372 1808.2,-135.112"/>
<ellipse fill="none" stroke="black" cx="1588.61" cy="-281.417" rx="4.00002" ry="4.00002"/>
<polygon fill="black" stroke="black" points="1808.31,-135.032 1818.97,-132.473 1812.26,-131.973 1816.22,-128.914 1816.22,-128.914 1816.22,-128.914 1812.26,-131.973 1813.46,-125.354 1808.31,-135.032 1808.31,-135.032"/>
</g>
<!-- Category&#45;&gt;Category -->
<g id="edge28" class="edge"><title>Category&#45;&gt;Category</title>
<path fill="none" stroke="black" d="M1613.92,-305.381C1622.35,-304.341 1628,-302.215 1628,-299 1628,-296.078 1623.33,-294.054 1616.15,-292.93"/>
<ellipse fill="none" stroke="black" cx="1609.86" cy="-305.7" rx="4" ry="4"/>
<polygon fill="black" stroke="black" points="1615.83,-292.9 1606.28,-287.505 1610.85,-292.443 1605.87,-291.986 1605.87,-291.986 1605.87,-291.986 1610.85,-292.443 1605.46,-296.467 1615.83,-292.9 1615.83,-292.9"/>
<text text-anchor="middle" x="1655.5" y="-295.4" font-family="Times Roman,serif" font-size="14.00">children</text>
</g>
<!-- ModelSubmission -->
<g id="node20" class="node"><title>ModelSubmission</title>
<ellipse fill="none" stroke="black" cx="1554" cy="-223" rx="94.7523" ry="18.3848"/>
<text text-anchor="middle" x="1554" y="-219.4" font-family="Times Roman,serif" font-size="14.00">ModelSubmission</text>
</g>
<!-- Category&#45;&gt;ModelSubmission -->
<g id="edge26" class="edge"><title>Category&#45;&gt;ModelSubmission</title>
<path fill="none" stroke="black" d="M1554,-269.938C1554,-263.986 1554,-257.725 1554,-251.783"/>
<polygon fill="black" stroke="black" points="1554,-270.213 1549.5,-280.213 1554,-275.213 1554,-280.213 1554,-280.213 1554,-280.213 1554,-275.213 1558.5,-280.214 1554,-270.213 1554,-270.213"/>
<polygon fill="black" stroke="black" points="1554,-251.57 1558.5,-241.57 1554,-246.57 1554,-241.57 1554,-241.57 1554,-241.57 1554,-246.57 1549.5,-241.57 1554,-251.57 1554,-251.57"/>
</g>
<!-- Page -->
<g id="node17" class="node"><title>Page</title>
<ellipse fill="none" stroke="black" cx="798" cy="-403" rx="34.8574" ry="18.3848"/>
<text text-anchor="middle" x="798" y="-399.4" font-family="Times Roman,serif" font-size="14.00">Page</text>
</g>
<!-- Page&#45;&gt;View -->
<g id="edge14" class="edge"><title>Page&#45;&gt;View</title>
<path fill="none" stroke="black" d="M786.18,-385.513C778.291,-375.257 766.999,-362.979 754,-356 701.962,-328.062 527.408,-309.18 451.62,-302.107"/>
</g>
<!-- Page&#45;&gt;PageVariable -->
<g id="edge32" class="edge"><title>Page&#45;&gt;PageVariable</title>
<path fill="none" stroke="black" d="M816.64,-379.772C823.965,-371.589 832.816,-362.755 842,-356 862.515,-340.911 887.649,-328.119 909.442,-318.501"/>
<ellipse fill="none" stroke="black" cx="813.979" cy="-382.837" rx="4.00002" ry="4.00002"/>
<polygon fill="black" stroke="black" points="909.686,-318.396 920.65,-318.576 914.278,-316.42 918.871,-314.443 918.871,-314.443 918.871,-314.443 914.278,-316.42 917.092,-310.309 909.686,-318.396 909.686,-318.396"/>
</g>
<!-- ObjectForm -->
<g id="node26" class="node"><title>ObjectForm</title>
<ellipse fill="none" stroke="black" cx="800" cy="-299" rx="67.1751" ry="18.3848"/>
<text text-anchor="middle" x="800" y="-295.4" font-family="Times Roman,serif" font-size="14.00">ObjectForm</text>
</g>
<!-- Page&#45;&gt;ObjectForm -->
<g id="edge52" class="edge"><title>Page&#45;&gt;ObjectForm</title>
<path fill="none" stroke="black" d="M798.358,-384.407C798.719,-365.594 799.276,-336.664 799.639,-317.783"/>
</g>
<!-- Menu -->
<g id="node27" class="node"><title>Menu</title>
<ellipse fill="none" stroke="black" cx="1116" cy="-299" rx="38.8909" ry="18.3848"/>
<text text-anchor="middle" x="1116" y="-295.4" font-family="Times Roman,serif" font-size="14.00">Menu</text>
</g>
<!-- Page&#45;&gt;Menu -->
<g id="edge30" class="edge"><title>Page&#45;&gt;Menu</title>
<path fill="none" stroke="black" d="M815.427,-378.791C822.713,-370.338 831.853,-361.578 842,-356 881.836,-334.103 998.645,-327.953 1043,-318 1053.08,-315.738 1063.89,-313.065 1074.01,-310.449"/>
<ellipse fill="none" stroke="black" cx="812.764" cy="-382.043" rx="4.00002" ry="4.00002"/>
<ellipse fill="black" stroke="black" cx="1078.08" cy="-309.385" rx="4.00001" ry="4.00001"/>
</g>
<!-- FormData -->
<g id="node18" class="node"><title>FormData</title>
<ellipse fill="none" stroke="black" cx="2610" cy="-403" rx="60.1041" ry="18.3848"/>
<text text-anchor="middle" x="2610" y="-399.4" font-family="Times Roman,serif" font-size="14.00">FormData</text>
</g>
<!-- Mailer -->
<g id="node19" class="node"><title>Mailer</title>
<ellipse fill="none" stroke="black" cx="1149" cy="-223" rx="41.2167" ry="18.3848"/>
<text text-anchor="middle" x="1149" y="-219.4" font-family="Times Roman,serif" font-size="14.00">Mailer</text>
</g>
<!-- ModelSubmission&#45;&gt;Categorization -->
<g id="edge38" class="edge"><title>ModelSubmission&#45;&gt;Categorization</title>
<path fill="none" stroke="black" d="M1603.9,-203.389C1655.72,-183.025 1736.35,-151.338 1788.42,-130.877"/>
<ellipse fill="none" stroke="black" cx="1600.08" cy="-204.89" rx="4.00001" ry="4.00001"/>
<polygon fill="black" stroke="black" points="1788.49,-130.849 1799.44,-131.38 1793.14,-129.021 1797.8,-127.192 1797.8,-127.192 1797.8,-127.192 1793.14,-129.021 1796.15,-123.004 1788.49,-130.849 1788.49,-130.849"/>
</g>
<!-- CommentSubmission -->
<g id="node29" class="node"><title>CommentSubmission</title>
<ellipse fill="none" stroke="black" cx="1550" cy="-111" rx="113.844" ry="18.3848"/>
<text text-anchor="middle" x="1550" y="-107.4" font-family="Times Roman,serif" font-size="14.00">CommentSubmission</text>
</g>
<!-- ModelSubmission&#45;&gt;CommentSubmission -->
<g id="edge36" class="edge"><title>ModelSubmission&#45;&gt;CommentSubmission</title>
<path fill="none" stroke="black" d="M1553.04,-196.242C1552.44,-179.273 1551.65,-157.325 1551.03,-139.95"/>
<ellipse fill="none" stroke="black" cx="1553.19" cy="-200.256" rx="4" ry="4"/>
<polygon fill="black" stroke="black" points="1551.03,-139.801 1555.17,-129.647 1550.85,-134.804 1550.67,-129.807 1550.67,-129.807 1550.67,-129.807 1550.85,-134.804 1546.17,-129.968 1551.03,-139.801 1551.03,-139.801"/>
</g>
<!-- ModelSubmission&#45;&gt;ModelDatum -->
<g id="edge34" class="edge"><title>ModelSubmission&#45;&gt;ModelDatum</title>
<path fill="none" stroke="black" d="M1493.86,-204.291C1482.39,-199.311 1470.89,-193.248 1461,-186 1443.42,-173.114 1447.37,-161.165 1430,-148 1420.67,-140.932 1409.79,-134.895 1398.98,-129.872"/>
<ellipse fill="none" stroke="black" cx="1497.68" cy="-205.877" rx="4.00002" ry="4.00002"/>
<polygon fill="black" stroke="black" points="1398.7,-129.748 1391.36,-121.601 1394.13,-127.734 1389.55,-125.72 1389.55,-125.72 1389.55,-125.72 1394.13,-127.734 1387.74,-129.838 1398.7,-129.748 1398.7,-129.748"/>
<text text-anchor="middle" x="1504.5" y="-163.4" font-family="Times Roman,serif" font-size="14.00">model_datas</text>
</g>
<!-- Pagelet -->
<g id="node22" class="node"><title>Pagelet</title>
<ellipse fill="none" stroke="black" cx="2736" cy="-403" rx="48.0833" ry="18.3848"/>
<text text-anchor="middle" x="2736" y="-399.4" font-family="Times Roman,serif" font-size="14.00">Pagelet</text>
</g>
<!-- FormSubmission -->
<g id="node23" class="node"><title>FormSubmission</title>
<ellipse fill="none" stroke="black" cx="798" cy="-223" rx="90.0096" ry="18.3848"/>
<text text-anchor="middle" x="798" y="-219.4" font-family="Times Roman,serif" font-size="14.00">FormSubmission</text>
</g>
<!-- FormDatum -->
<g id="node61" class="node"><title>FormDatum</title>
<ellipse fill="none" stroke="black" cx="923" cy="-111" rx="68.7979" ry="18.3848"/>
<text text-anchor="middle" x="923" y="-107.4" font-family="Times Roman,serif" font-size="14.00">FormDatum</text>
</g>
<!-- FormSubmission&#45;&gt;FormDatum -->
<g id="edge40" class="edge"><title>FormSubmission&#45;&gt;FormDatum</title>
<path fill="none" stroke="black" d="M818.862,-198.421C832.41,-183.124 850.865,-163.485 869,-148 874.645,-143.18 880.924,-138.411 887.147,-133.981"/>
<ellipse fill="none" stroke="black" cx="816.007" cy="-201.677" rx="4.00002" ry="4.00002"/>
<polygon fill="black" stroke="black" points="887.31,-133.868 898.093,-131.877 891.421,-131.023 895.532,-128.177 895.532,-128.177 895.532,-128.177 891.421,-131.023 892.971,-124.477 887.31,-133.868 887.31,-133.868"/>
<text text-anchor="middle" x="907.5" y="-163.4" font-family="Times Roman,serif" font-size="14.00">form_datas</text>
</g>
<!-- PageVariableSetting -->
<g id="node24" class="node"><title>PageVariableSetting</title>
<ellipse fill="none" stroke="black" cx="960" cy="-403" rx="109.101" ry="18.3848"/>
<text text-anchor="middle" x="960" y="-399.4" font-family="Times Roman,serif" font-size="14.00">PageVariableSetting</text>
</g>
<!-- PageVariableSetting&#45;&gt;PageVariable -->
<g id="edge42" class="edge"><title>PageVariableSetting&#45;&gt;PageVariable</title>
<path fill="none" stroke="black" d="M960,-375.926C960,-361.224 960,-343.041 960,-328.044"/>
<ellipse fill="none" stroke="black" cx="960" cy="-380.407" rx="4" ry="4"/>
<polygon fill="black" stroke="black" points="960,-327.783 964.5,-317.783 960,-322.783 960,-317.783 960,-317.783 960,-317.783 960,-322.783 955.5,-317.783 960,-327.783 960,-327.783"/>
</g>
<!-- Menuset -->
<g id="node25" class="node"><title>Menuset</title>
<ellipse fill="none" stroke="black" cx="1140" cy="-403" rx="53.2379" ry="18.3848"/>
<text text-anchor="middle" x="1140" y="-399.4" font-family="Times Roman,serif" font-size="14.00">Menuset</text>
</g>
<!-- Menuset&#45;&gt;Menu -->
<g id="edge44" class="edge"><title>Menuset&#45;&gt;Menu</title>
<path fill="none" stroke="black" d="M1133.85,-376.371C1130.39,-361.371 1126.07,-342.641 1122.55,-327.366"/>
<ellipse fill="none" stroke="black" cx="1134.81" cy="-380.509" rx="4.00001" ry="4.00001"/>
<polygon fill="black" stroke="black" points="1122.5,-327.176 1124.64,-316.42 1121.38,-322.304 1120.25,-317.432 1120.25,-317.432 1120.25,-317.432 1121.38,-322.304 1115.87,-318.444 1122.5,-327.176 1122.5,-327.176"/>
</g>
<!-- ObjectForm&#45;&gt;Mailer -->
<g id="edge50" class="edge"><title>ObjectForm&#45;&gt;Mailer</title>
<path fill="none" stroke="black" d="M857.015,-284.443C863.736,-282.872 870.509,-281.354 877,-280 974.991,-259.552 1002.43,-268.347 1099,-242 1102.93,-240.928 1106.98,-239.665 1111,-238.308"/>
<ellipse fill="none" stroke="black" cx="853.063" cy="-285.381" rx="4.00001" ry="4.00001"/>
<ellipse fill="black" stroke="black" cx="1114.87" cy="-236.942" rx="4.00001" ry="4.00001"/>
</g>
<!-- ObjectForm&#45;&gt;FormSubmission -->
<g id="edge48" class="edge"><title>ObjectForm&#45;&gt;FormSubmission</title>
<path fill="none" stroke="black" d="M799.291,-272.073C799.117,-265.449 798.93,-258.332 798.753,-251.63"/>
<ellipse fill="none" stroke="black" cx="799.4" cy="-276.215" rx="4" ry="4"/>
<polygon fill="black" stroke="black" points="798.752,-251.567 802.987,-241.452 798.62,-246.569 798.489,-241.57 798.489,-241.57 798.489,-241.57 798.62,-246.569 793.99,-241.689 798.752,-251.567 798.752,-251.567"/>
</g>
<!-- FormComponent -->
<g id="node33" class="node"><title>FormComponent</title>
<ellipse fill="none" stroke="black" cx="998" cy="-223" rx="92.1303" ry="18.3848"/>
<text text-anchor="middle" x="998" y="-219.4" font-family="Times Roman,serif" font-size="14.00">FormComponent</text>
</g>
<!-- ObjectForm&#45;&gt;FormComponent -->
<g id="edge46" class="edge"><title>ObjectForm&#45;&gt;FormComponent</title>
<path fill="none" stroke="black" d="M847.255,-280.862C876.809,-269.518 914.92,-254.889 945.427,-243.179"/>
<ellipse fill="none" stroke="black" cx="843.327" cy="-282.37" rx="4.00001" ry="4.00001"/>
<polygon fill="black" stroke="black" points="945.709,-243.071 956.657,-243.689 950.377,-241.28 955.045,-239.488 955.045,-239.488 955.045,-239.488 950.377,-241.28 953.432,-235.287 945.709,-243.071 945.709,-243.071"/>
</g>
<!-- Menu&#45;&gt;Menu -->
<g id="edge54" class="edge"><title>Menu&#45;&gt;Menu</title>
<path fill="none" stroke="black" d="M1160.33,-305.637C1167.82,-304.719 1173,-302.507 1173,-299 1173,-295.785 1168.65,-293.659 1162.16,-292.619"/>
<ellipse fill="none" stroke="black" cx="1156.17" cy="-305.885" rx="4" ry="4"/>
<polygon fill="black" stroke="black" points="1162.15,-292.619 1152.51,-287.389 1157.17,-292.248 1152.18,-291.877 1152.18,-291.877 1152.18,-291.877 1157.17,-292.248 1151.85,-296.364 1162.15,-292.619 1162.15,-292.619"/>
<text text-anchor="middle" x="1200.5" y="-295.4" font-family="Times Roman,serif" font-size="14.00">children</text>
</g>
<!-- ModelData -->
<g id="node28" class="node"><title>ModelData</title>
<ellipse fill="none" stroke="black" cx="2866" cy="-403" rx="63.8479" ry="18.3848"/>
<text text-anchor="middle" x="2866" y="-399.4" font-family="Times Roman,serif" font-size="14.00">ModelData</text>
</g>
<!-- CommentSubmission&#45;&gt;CommentSubmission -->
<g id="edge58" class="edge"><title>CommentSubmission&#45;&gt;CommentSubmission</title>
<path fill="none" stroke="black" d="M1660.94,-118.339C1673.71,-116.976 1682,-114.53 1682,-111 1682,-107.668 1674.61,-105.301 1663.05,-103.9"/>
<ellipse fill="none" stroke="black" cx="1656.93" cy="-118.679" rx="4" ry="4"/>
<polygon fill="black" stroke="black" points="1662.9,-103.887 1653.35,-98.5019 1657.92,-103.435 1652.94,-102.984 1652.94,-102.984 1652.94,-102.984 1657.92,-103.435 1652.53,-107.465 1662.9,-103.887 1662.9,-103.887"/>
<text text-anchor="middle" x="1709.5" y="-107.4" font-family="Times Roman,serif" font-size="14.00">children</text>
</g>
<!-- CommentSubmission&#45;&gt;CommentDatum -->
<g id="edge56" class="edge"><title>CommentSubmission&#45;&gt;CommentDatum</title>
<path fill="none" stroke="black" d="M1489.2,-92.1014C1437.81,-76.1287 1364.61,-53.3802 1313.58,-37.5168"/>
<ellipse fill="none" stroke="black" cx="1493.26" cy="-93.365" rx="4.00001" ry="4.00001"/>
<polygon fill="black" stroke="black" points="1313.54,-37.5072 1305.33,-30.2418 1308.77,-36.0231 1304,-34.5391 1304,-34.5391 1304,-34.5391 1308.77,-36.0231 1302.66,-38.8363 1313.54,-37.5072 1313.54,-37.5072"/>
<text text-anchor="middle" x="1483.5" y="-61.4" font-family="Times Roman,serif" font-size="14.00">comment_datas</text>
</g>
<!-- Asset -->
<g id="node30" class="node"><title>Asset</title>
<ellipse fill="none" stroke="black" cx="2986" cy="-403" rx="38.1838" ry="18.3848"/>
<text text-anchor="middle" x="2986" y="-399.4" font-family="Times Roman,serif" font-size="14.00">Asset</text>
</g>
<!-- UserDetailSetting -->
<g id="node31" class="node"><title>UserDetailSetting</title>
<ellipse fill="none" stroke="black" cx="2075" cy="-299" rx="98.9949" ry="18.3848"/>
<text text-anchor="middle" x="2075" y="-295.4" font-family="Times Roman,serif" font-size="14.00">UserDetailSetting</text>
</g>
<!-- UserDetailSetting&#45;&gt;UserDetail -->
<g id="edge60" class="edge"><title>UserDetailSetting&#45;&gt;UserDetail</title>
<path fill="none" stroke="black" d="M2048.46,-274.985C2038.77,-266.217 2027.8,-256.295 2018.06,-247.487"/>
<ellipse fill="none" stroke="black" cx="2051.7" cy="-277.919" rx="4.00002" ry="4.00002"/>
<polygon fill="black" stroke="black" points="2017.98,-247.414 2013.59,-237.368 2014.28,-244.059 2010.57,-240.705 2010.57,-240.705 2010.57,-240.705 2014.28,-244.059 2007.55,-244.042 2017.98,-247.414 2017.98,-247.414"/>
</g>
<!-- Categoryset -->
<g id="node32" class="node"><title>Categoryset</title>
<ellipse fill="none" stroke="black" cx="1448" cy="-403" rx="70.9184" ry="18.3848"/>
<text text-anchor="middle" x="1448" y="-399.4" font-family="Times Roman,serif" font-size="14.00">Categoryset</text>
</g>
<!-- Categoryset&#45;&gt;Category -->
<g id="edge62" class="edge"><title>Categoryset&#45;&gt;Category</title>
<path fill="none" stroke="black" d="M1472.24,-379.213C1489.11,-362.663 1511.55,-340.645 1528.66,-323.864"/>
<ellipse fill="none" stroke="black" cx="1469.32" cy="-382.083" rx="4.00002" ry="4.00002"/>
<polygon fill="black" stroke="black" points="1528.96,-323.565 1539.25,-319.773 1532.53,-320.063 1536.1,-316.561 1536.1,-316.561 1536.1,-316.561 1532.53,-320.063 1532.95,-313.349 1528.96,-323.565 1528.96,-323.565"/>
</g>
<!-- ObjectModel -->
<g id="node38" class="node"><title>ObjectModel</title>
<ellipse fill="none" stroke="black" cx="1343" cy="-299" rx="70.9184" ry="18.3848"/>
<text text-anchor="middle" x="1343" y="-295.4" font-family="Times Roman,serif" font-size="14.00">ObjectModel</text>
</g>
<!-- Categoryset&#45;&gt;ObjectModel -->
<g id="edge64" class="edge"><title>Categoryset&#45;&gt;ObjectModel</title>
<path fill="none" stroke="black" d="M1424.02,-379.249C1407.42,-362.808 1385.36,-340.956 1368.45,-324.207"/>
<ellipse fill="none" stroke="black" cx="1426.87" cy="-382.07" rx="4.00002" ry="4.00002"/>
<polygon fill="black" stroke="black" points="1368.18,-323.945 1364.25,-313.711 1364.63,-320.426 1361.08,-316.908 1361.08,-316.908 1361.08,-316.908 1364.63,-320.426 1357.91,-320.105 1368.18,-323.945 1368.18,-323.945"/>
</g>
<!-- FormComponent&#45;&gt;FormDatum -->
<g id="edge66" class="edge"><title>FormComponent&#45;&gt;FormDatum</title>
<path fill="none" stroke="black" d="M981.136,-197.816C969.206,-180.001 953.231,-156.145 941.046,-137.949"/>
<ellipse fill="none" stroke="black" cx="983.39" cy="-201.182" rx="4.00002" ry="4.00002"/>
<polygon fill="black" stroke="black" points="940.967,-137.831 939.142,-127.018 938.185,-133.677 935.403,-129.522 935.403,-129.522 935.403,-129.522 938.185,-133.677 931.664,-132.026 940.967,-137.831 940.967,-137.831"/>
<text text-anchor="middle" x="1010.5" y="-163.4" font-family="Times Roman,serif" font-size="14.00">form_datas</text>
</g>
<!-- Setting -->
<g id="node34" class="node"><title>Setting</title>
<ellipse fill="none" stroke="black" cx="3089" cy="-403" rx="46.8775" ry="18.3848"/>
<text text-anchor="middle" x="3089" y="-399.4" font-family="Times Roman,serif" font-size="14.00">Setting</text>
</g>
<!-- Role -->
<g id="node35" class="node"><title>Role</title>
<ellipse fill="none" stroke="black" cx="1907" cy="-403" rx="32.0265" ry="18.3848"/>
<text text-anchor="middle" x="1907" y="-399.4" font-family="Times Roman,serif" font-size="14.00">Role</text>
</g>
<!-- Role&#45;&gt;PermissionRole -->
<g id="edge70" class="edge"><title>Role&#45;&gt;PermissionRole</title>
<path fill="none" stroke="black" d="M1885.61,-380.558C1877.75,-372.596 1868.65,-363.705 1860,-356 1847.3,-344.694 1832.69,-332.916 1819.96,-323.021"/>
<ellipse fill="none" stroke="black" cx="1888.55" cy="-383.57" rx="4.00002" ry="4.00002"/>
<polygon fill="black" stroke="black" points="1819.83,-322.919 1814.65,-313.251 1815.87,-319.867 1811.91,-316.815 1811.91,-316.815 1811.91,-316.815 1815.87,-319.867 1809.16,-320.38 1819.83,-322.919 1819.83,-322.919"/>
</g>
<!-- Role&#45;&gt;User -->
<g id="edge68" class="edge"><title>Role&#45;&gt;User</title>
<path fill="none" stroke="black" d="M1911.35,-376.371C1913.8,-361.371 1916.87,-342.641 1919.36,-327.366"/>
<ellipse fill="none" stroke="black" cx="1910.68" cy="-380.459" rx="4.00001" ry="4.00001"/>
<polygon fill="black" stroke="black" points="1919.37,-327.301 1925.43,-318.158 1920.18,-322.367 1920.99,-317.432 1920.99,-317.432 1920.99,-317.432 1920.18,-322.367 1916.55,-316.706 1919.37,-327.301 1919.37,-327.301"/>
</g>
<!-- CommentData -->
<g id="node36" class="node"><title>CommentData</title>
<ellipse fill="none" stroke="black" cx="3236" cy="-403" rx="82.2301" ry="18.3848"/>
<text text-anchor="middle" x="3236" y="-399.4" font-family="Times Roman,serif" font-size="14.00">CommentData</text>
</g>
<!-- ObjectModel&#45;&gt;ModelComponent -->
<g id="edge72" class="edge"><title>ObjectModel&#45;&gt;ModelComponent</title>
<path fill="none" stroke="black" d="M1343,-272.073C1343,-265.449 1343,-258.332 1343,-251.63"/>
<ellipse fill="none" stroke="black" cx="1343" cy="-276.213" rx="4" ry="4"/>
<polygon fill="black" stroke="black" points="1343,-251.57 1347.5,-241.57 1343,-246.57 1343,-241.57 1343,-241.57 1343,-241.57 1343,-246.57 1338.5,-241.57 1343,-251.57 1343,-251.57"/>
</g>
<!-- ObjectModel&#45;&gt;CommentComponent -->
<g id="edge76" class="edge"><title>ObjectModel&#45;&gt;CommentComponent</title>
<path fill="none" stroke="black" d="M1294.21,-280.538C1274.59,-271.269 1252.89,-258.461 1237,-242 1224.26,-228.805 1215.08,-210.369 1209.06,-195.078"/>
<ellipse fill="none" stroke="black" cx="1297.97" cy="-282.256" rx="4.00002" ry="4.00002"/>
<polygon fill="black" stroke="black" points="1209.01,-194.951 1209.77,-184.011 1207.28,-190.261 1205.54,-185.571 1205.54,-185.571 1205.54,-185.571 1207.28,-190.261 1201.32,-187.13 1209.01,-194.951 1209.01,-194.951"/>
</g>
<!-- ObjectModel&#45;&gt;Mailer -->
<g id="edge78" class="edge"><title>ObjectModel&#45;&gt;Mailer</title>
<path fill="none" stroke="black" d="M1276.69,-286.446C1253.09,-280.667 1226.75,-272.669 1204,-262 1193.95,-257.287 1183.8,-250.715 1175,-244.307"/>
<ellipse fill="none" stroke="black" cx="1280.68" cy="-287.396" rx="4.00001" ry="4.00001"/>
<ellipse fill="black" stroke="black" cx="1171.76" cy="-241.873" rx="4.00002" ry="4.00002"/>
</g>
<!-- ObjectModel&#45;&gt;ModelSubmission -->
<g id="edge74" class="edge"><title>ObjectModel&#45;&gt;ModelSubmission</title>
<path fill="none" stroke="black" d="M1392.46,-281.186C1424.48,-269.651 1466.21,-254.619 1499.24,-242.724"/>
<ellipse fill="none" stroke="black" cx="1388.45" cy="-282.629" rx="4.00001" ry="4.00001"/>
<polygon fill="black" stroke="black" points="1499.34,-242.688 1510.27,-243.533 1504.04,-240.994 1508.75,-239.3 1508.75,-239.3 1508.75,-239.3 1504.04,-240.994 1507.22,-235.066 1499.34,-242.688 1499.34,-242.688"/>
</g>
</g>
</svg>
