<?xml version="1.0" encoding="UTF-8" standalone="no"?>
<!DOCTYPE svg PUBLIC "-//W3C//DTD SVG 1.0//EN"
 "http://www.w3.org/TR/2001/REC-SVG-20010904/DTD/svg10.dtd" [
 <!ATTLIST svg xmlns:xlink CDATA #FIXED "http://www.w3.org/1999/xlink">
]>
<!-- Generated by Graphviz version 2.20.2 (Tue Mar &#160;2 21:46:26 UTC 2010)
     For user: (root) root -->
<!-- Title: models_diagram Pages: 1 -->
<svg width="3147pt" height="432pt"
 viewBox="0.00 0.00 3147.00 432.00" xmlns="http://www.w3.org/2000/svg" xmlns:xlink="http://www.w3.org/1999/xlink">
<g id="graph0" class="graph" transform="scale(1 1) rotate(0) translate(4 428)">
<title>models_diagram</title>
<polygon style="fill:white;stroke:white;" points="-4,4 -4,-428 3143,-428 3143,4 -4,4"/>
<!-- _diagram_info -->
<g id="node1" class="node"><title>_diagram_info</title>
<text text-anchor="start" x="7.5" y="-407.8" style="font-family:Times New Roman;font-size:13.00;">Models diagram</text>
<text text-anchor="start" x="7.5" y="-390.8" style="font-family:Times New Roman;font-size:13.00;">Date: May 05 2011 &#45; 14:28</text>
<text text-anchor="start" x="7.5" y="-373.8" style="font-family:Times New Roman;font-size:13.00;">Migration version: 20110502144116</text>
<text text-anchor="start" x="7.5" y="-356.8" style="font-family:Times New Roman;font-size:13.00;">Generated by RailRoady 1.0.2</text>
<text text-anchor="start" x="7.5" y="-339.8" style="font-family:Times New Roman;font-size:13.00;">http://railroady.prestonlee.com</text>
</g>
<!-- UserDetail -->
<g id="node2" class="node"><title>UserDetail</title>
<ellipse style="fill:none;stroke:black;" cx="521" cy="-200" rx="61.8445" ry="18"/>
<text text-anchor="middle" x="521" y="-195.9" style="font-family:Times New Roman;font-size:14.00;">UserDetail</text>
</g>
<!-- CommentComponent -->
<g id="node3" class="node"><title>CommentComponent</title>
<ellipse style="fill:none;stroke:black;" cx="1313" cy="-146" rx="112.071" ry="18"/>
<text text-anchor="middle" x="1313" y="-141.9" style="font-family:Times New Roman;font-size:14.00;">CommentComponent</text>
</g>
<!-- CommentDatum -->
<g id="node5" class="node"><title>CommentDatum</title>
<ellipse style="fill:none;stroke:black;" cx="1219" cy="-18" rx="89.8356" ry="18"/>
<text text-anchor="middle" x="1219" y="-13.9" style="font-family:Times New Roman;font-size:14.00;">CommentDatum</text>
</g>
<!-- CommentComponent&#45;&gt;CommentDatum -->
<g id="edge2" class="edge"><title>CommentComponent&#45;&gt;CommentDatum</title>
<path style="fill:none;stroke:black;" d="M1311,-120C1308,-105 1303,-87 1294,-74 1285,-61 1272,-49 1260,-41"/>
<ellipse style="fill:none;stroke:black;" cx="1311.5" cy="-124.031" rx="4.00001" ry="4.00001"/>
<polygon style="fill:black;stroke:black;" points="1259.32,-40.547 1253.5,-31.2558 1255.16,-37.7735 1251,-35 1251,-35 1251,-35 1255.16,-37.7735 1248.5,-38.7442 1259.32,-40.547 1259.32,-40.547"/>
</g>
<!-- ViewComponent -->
<g id="node4" class="node"><title>ViewComponent</title>
<ellipse style="fill:none;stroke:black;" cx="1842" cy="-200" rx="89.8356" ry="18"/>
<text text-anchor="middle" x="1842" y="-195.9" style="font-family:Times New Roman;font-size:14.00;">ViewComponent</text>
</g>
<!-- FormComponent -->
<g id="node6" class="node"><title>FormComponent</title>
<ellipse style="fill:none;stroke:black;" cx="1644" cy="-200" rx="89.8356" ry="18"/>
<text text-anchor="middle" x="1644" y="-195.9" style="font-family:Times New Roman;font-size:14.00;">FormComponent</text>
</g>
<!-- FormDatum -->
<g id="node27" class="node"><title>FormDatum</title>
<ellipse style="fill:none;stroke:black;" cx="1546" cy="-92" rx="68.0985" ry="18"/>
<text text-anchor="middle" x="1546" y="-87.9" style="font-family:Times New Roman;font-size:14.00;">FormDatum</text>
</g>
<!-- FormComponent&#45;&gt;FormDatum -->
<g id="edge4" class="edge"><title>FormComponent&#45;&gt;FormDatum</title>
<path style="fill:none;stroke:black;" d="M1622,-176C1606,-159 1585,-135 1569,-118"/>
<ellipse style="fill:none;stroke:black;" cx="1625.17" cy="-179.172" rx="4.00002" ry="4.00002"/>
<polygon style="fill:black;stroke:black;" points="1568.59,-117.526 1565.39,-107.037 1565.29,-113.763 1562,-110 1562,-110 1562,-110 1565.29,-113.763 1558.61,-112.963 1568.59,-117.526 1568.59,-117.526"/>
</g>
<!-- ObjectForm -->
<g id="node7" class="node"><title>ObjectForm</title>
<ellipse style="fill:none;stroke:black;" cx="1546" cy="-274" rx="66.0138" ry="18"/>
<text text-anchor="middle" x="1546" y="-269.9" style="font-family:Times New Roman;font-size:14.00;">ObjectForm</text>
</g>
<!-- ObjectForm&#45;&gt;FormComponent -->
<g id="edge6" class="edge"><title>ObjectForm&#45;&gt;FormComponent</title>
<path style="fill:none;stroke:black;" d="M1576,-252C1587,-243 1601,-233 1613,-224"/>
<ellipse style="fill:none;stroke:black;" cx="1572.25" cy="-254.675" rx="4.00002" ry="4.00002"/>
<polygon style="fill:black;stroke:black;" points="1613,-224 1623.7,-221.6 1617,-221 1621,-218 1621,-218 1621,-218 1617,-221 1618.3,-214.4 1613,-224 1613,-224"/>
</g>
<!-- FormSubmission -->
<g id="node22" class="node"><title>FormSubmission</title>
<ellipse style="fill:none;stroke:black;" cx="1447" cy="-200" rx="88.9449" ry="18"/>
<text text-anchor="middle" x="1447" y="-195.9" style="font-family:Times New Roman;font-size:14.00;">FormSubmission</text>
</g>
<!-- ObjectForm&#45;&gt;FormSubmission -->
<g id="edge8" class="edge"><title>ObjectForm&#45;&gt;FormSubmission</title>
<path style="fill:none;stroke:black;" d="M1516,-252C1505,-243 1491,-233 1479,-224"/>
<ellipse style="fill:none;stroke:black;" cx="1519.75" cy="-254.675" rx="4.00002" ry="4.00002"/>
<polygon style="fill:black;stroke:black;" points="1479,-224 1473.7,-214.4 1475,-221 1471,-218 1471,-218 1471,-218 1475,-221 1468.3,-221.6 1479,-224 1479,-224"/>
</g>
<!-- Mailer -->
<g id="node23" class="node"><title>Mailer</title>
<ellipse style="fill:none;stroke:black;" cx="1300" cy="-200" rx="39.8056" ry="18"/>
<text text-anchor="middle" x="1300" y="-195.9" style="font-family:Times New Roman;font-size:14.00;">Mailer</text>
</g>
<!-- ObjectForm&#45;&gt;Mailer -->
<g id="edge10" class="edge"><title>ObjectForm&#45;&gt;Mailer</title>
<path style="fill:none;stroke:black;" d="M1490,-259C1450,-249 1397,-233 1349,-218 1346,-217 1342,-216 1339,-214"/>
<ellipse style="fill:none;stroke:black;" cx="1494.12" cy="-260.03" rx="4.00001" ry="4.00001"/>
<ellipse style="fill:black;stroke:black;" cx="1334.75" cy="-212.405" rx="4.00001" ry="4.00001"/>
</g>
<!-- PageVariable -->
<g id="node8" class="node"><title>PageVariable</title>
<ellipse style="fill:none;stroke:black;" cx="2140" cy="-274" rx="72.9626" ry="18"/>
<text text-anchor="middle" x="2140" y="-269.9" style="font-family:Times New Roman;font-size:14.00;">PageVariable</text>
</g>
<!-- View -->
<g id="node9" class="node"><title>View</title>
<ellipse style="fill:none;stroke:black;" cx="2012" cy="-274" rx="34.9399" ry="18"/>
<text text-anchor="middle" x="2012" y="-269.9" style="font-family:Times New Roman;font-size:14.00;">View</text>
</g>
<!-- View&#45;&gt;ViewComponent -->
<g id="edge14" class="edge"><title>View&#45;&gt;ViewComponent</title>
<path style="fill:none;stroke:black;" d="M1977,-259C1952,-248 1917,-233 1889,-220"/>
<ellipse style="fill:none;stroke:black;" cx="1981.25" cy="-260.595" rx="4.00001" ry="4.00001"/>
<polygon style="fill:black;stroke:black;" points="1889.14,-220.061 1881.83,-211.888 1884.57,-218.031 1880,-216 1880,-216 1880,-216 1884.57,-218.031 1878.17,-220.112 1889.14,-220.061 1889.14,-220.061"/>
</g>
<!-- ViewOrder -->
<g id="node15" class="node"><title>ViewOrder</title>
<ellipse style="fill:none;stroke:black;" cx="2012" cy="-200" rx="62.0391" ry="18"/>
<text text-anchor="middle" x="2012" y="-195.9" style="font-family:Times New Roman;font-size:14.00;">ViewOrder</text>
</g>
<!-- View&#45;&gt;ViewOrder -->
<g id="edge18" class="edge"><title>View&#45;&gt;ViewOrder</title>
<path style="fill:none;stroke:black;" d="M2012,-248C2012,-242 2012,-235 2012,-228"/>
<ellipse style="fill:none;stroke:black;" cx="2012" cy="-252" rx="4" ry="4"/>
<polygon style="fill:black;stroke:black;" points="2012,-228 2016.5,-218 2012,-223 2012,-218 2012,-218 2012,-218 2012,-223 2007.5,-218 2012,-228 2012,-228"/>
</g>
<!-- CategoryView -->
<g id="node17" class="node"><title>CategoryView</title>
<ellipse style="fill:none;stroke:black;" cx="2171" cy="-200" rx="79.2166" ry="18"/>
<text text-anchor="middle" x="2171" y="-195.9" style="font-family:Times New Roman;font-size:14.00;">CategoryView</text>
</g>
<!-- View&#45;&gt;CategoryView -->
<g id="edge46" class="edge"><title>View&#45;&gt;CategoryView</title>
<path style="fill:none;stroke:black;" d="M2047,-258C2074,-246 2110,-228 2136,-216"/>
<polygon style="fill:none;stroke:black;" points="2045.72,-254.74 2038,-262 2048.56,-261.137 2045.72,-254.74"/>
</g>
<!-- ViewCondition -->
<g id="node25" class="node"><title>ViewCondition</title>
<ellipse style="fill:none;stroke:black;" cx="2349" cy="-200" rx="80.8024" ry="18"/>
<text text-anchor="middle" x="2349" y="-195.9" style="font-family:Times New Roman;font-size:14.00;">ViewCondition</text>
</g>
<!-- View&#45;&gt;ViewCondition -->
<g id="edge16" class="edge"><title>View&#45;&gt;ViewCondition</title>
<path style="fill:none;stroke:black;" d="M2047,-260C2051,-258 2054,-257 2058,-256 2146,-230 2170,-235 2259,-218 2266,-217 2272,-215 2279,-214"/>
<ellipse style="fill:none;stroke:black;" cx="2042.88" cy="-261.03" rx="4.00001" ry="4.00001"/>
<polygon style="fill:black;stroke:black;" points="2279.19,-213.961 2289.88,-216.413 2284.1,-212.981 2289,-212 2289,-212 2289,-212 2284.1,-212.981 2288.12,-207.587 2279.19,-213.961 2279.19,-213.961"/>
</g>
<!-- Permission -->
<g id="node10" class="node"><title>Permission</title>
<ellipse style="fill:none;stroke:black;" cx="413" cy="-377" rx="62.0391" ry="18"/>
<text text-anchor="middle" x="413" y="-372.9" style="font-family:Times New Roman;font-size:14.00;">Permission</text>
</g>
<!-- PermissionRole -->
<g id="node34" class="node"><title>PermissionRole</title>
<ellipse style="fill:none;stroke:black;" cx="413" cy="-274" rx="82.1898" ry="18"/>
<text text-anchor="middle" x="413" y="-269.9" style="font-family:Times New Roman;font-size:14.00;">PermissionRole</text>
</g>
<!-- Permission&#45;&gt;PermissionRole -->
<g id="edge22" class="edge"><title>Permission&#45;&gt;PermissionRole</title>
<path style="fill:none;stroke:black;" d="M413,-351C413,-336 413,-317 413,-302"/>
<ellipse style="fill:none;stroke:black;" cx="413" cy="-355" rx="4" ry="4"/>
<polygon style="fill:black;stroke:black;" points="413,-302 417.5,-292 413,-297 413,-292 413,-292 413,-292 413,-297 408.5,-292 413,-302 413,-302"/>
</g>
<!-- ObjectModel -->
<g id="node11" class="node"><title>ObjectModel</title>
<ellipse style="fill:none;stroke:black;" cx="1110" cy="-274" rx="70.1831" ry="18"/>
<text text-anchor="middle" x="1110" y="-269.9" style="font-family:Times New Roman;font-size:14.00;">ObjectModel</text>
</g>
<!-- ObjectModel&#45;&gt;CommentComponent -->
<g id="edge28" class="edge"><title>ObjectModel&#45;&gt;CommentComponent</title>
<path style="fill:none;stroke:black;" d="M1151,-254C1171,-245 1193,-231 1213,-218 1232,-204 1233,-195 1251,-182 1257,-177 1264,-173 1270,-169"/>
<ellipse style="fill:none;stroke:black;" cx="1147.47" cy="-256.015" rx="4.00002" ry="4.00002"/>
<polygon style="fill:black;stroke:black;" points="1270.68,-168.547 1281.5,-166.744 1274.84,-165.774 1279,-163 1279,-163 1279,-163 1274.84,-165.774 1276.5,-159.256 1270.68,-168.547 1270.68,-168.547"/>
</g>
<!-- ModelSubmission -->
<g id="node14" class="node"><title>ModelSubmission</title>
<ellipse style="fill:none;stroke:black;" cx="905" cy="-200" rx="93.1142" ry="18"/>
<text text-anchor="middle" x="905" y="-195.9" style="font-family:Times New Roman;font-size:14.00;">ModelSubmission</text>
</g>
<!-- ObjectModel&#45;&gt;ModelSubmission -->
<g id="edge26" class="edge"><title>ObjectModel&#45;&gt;ModelSubmission</title>
<path style="fill:none;stroke:black;" d="M1061,-256C1030,-245 990,-231 959,-219"/>
<ellipse style="fill:none;stroke:black;" cx="1065.25" cy="-257.595" rx="4.00001" ry="4.00001"/>
<polygon style="fill:black;stroke:black;" points="958.578,-218.874 950.293,-211.69 953.789,-217.437 949,-216 949,-216 949,-216 953.789,-217.437 947.707,-220.31 958.578,-218.874 958.578,-218.874"/>
</g>
<!-- ObjectModel&#45;&gt;Mailer -->
<g id="edge30" class="edge"><title>ObjectModel&#45;&gt;Mailer</title>
<path style="fill:none;stroke:black;" d="M1175,-262C1198,-256 1224,-248 1246,-238 1255,-233 1266,-227 1274,-221"/>
<ellipse style="fill:none;stroke:black;" cx="1170.88" cy="-263.03" rx="4.00001" ry="4.00001"/>
<ellipse style="fill:black;stroke:black;" cx="1277.75" cy="-218.325" rx="4.00002" ry="4.00002"/>
</g>
<!-- ModelComponent -->
<g id="node36" class="node"><title>ModelComponent</title>
<ellipse style="fill:none;stroke:black;" cx="1110" cy="-200" rx="94.004" ry="18"/>
<text text-anchor="middle" x="1110" y="-195.9" style="font-family:Times New Roman;font-size:14.00;">ModelComponent</text>
</g>
<!-- ObjectModel&#45;&gt;ModelComponent -->
<g id="edge24" class="edge"><title>ObjectModel&#45;&gt;ModelComponent</title>
<path style="fill:none;stroke:black;" d="M1110,-248C1110,-242 1110,-235 1110,-228"/>
<ellipse style="fill:none;stroke:black;" cx="1110" cy="-252" rx="4" ry="4"/>
<polygon style="fill:black;stroke:black;" points="1110,-228 1114.5,-218 1110,-223 1110,-218 1110,-218 1110,-218 1110,-223 1105.5,-218 1110,-228 1110,-228"/>
</g>
<!-- Pagelet -->
<g id="node12" class="node"><title>Pagelet</title>
<ellipse style="fill:none;stroke:black;" cx="2480" cy="-377" rx="46.0565" ry="18"/>
<text text-anchor="middle" x="2480" y="-372.9" style="font-family:Times New Roman;font-size:14.00;">Pagelet</text>
</g>
<!-- CommentSubmission -->
<g id="node13" class="node"><title>CommentSubmission</title>
<ellipse style="fill:none;stroke:black;" cx="939" cy="-92" rx="111.181" ry="18"/>
<text text-anchor="middle" x="939" y="-87.9" style="font-family:Times New Roman;font-size:14.00;">CommentSubmission</text>
</g>
<!-- CommentSubmission&#45;&gt;CommentDatum -->
<g id="edge32" class="edge"><title>CommentSubmission&#45;&gt;CommentDatum</title>
<path style="fill:none;stroke:black;" d="M1005,-75C1050,-63 1110,-47 1154,-35"/>
<ellipse style="fill:none;stroke:black;" cx="1000.88" cy="-76.0298" rx="4.00001" ry="4.00001"/>
<polygon style="fill:black;stroke:black;" points="1154.42,-34.8735 1165.29,-36.3102 1159.21,-33.4368 1164,-32 1164,-32 1164,-32 1159.21,-33.4368 1162.71,-27.6898 1154.42,-34.8735 1154.42,-34.8735"/>
</g>
<!-- CommentSubmission&#45;&gt;CommentSubmission -->
<g id="edge34" class="edge"><title>CommentSubmission&#45;&gt;CommentSubmission</title>
<path style="fill:none;stroke:black;" d="M1052,-97C1062,-96 1068,-94 1068,-92 1068,-90 1063,-88 1054,-87"/>
<ellipse style="fill:none;stroke:black;" cx="1047.97" cy="-97.5038" rx="4.00001" ry="4.00001"/>
<polygon style="fill:black;stroke:black;" points="1053.95,-86.9951 1044.45,-81.5223 1048.98,-86.4976 1044,-86 1044,-86 1044,-86 1048.98,-86.4976 1043.55,-90.4777 1053.95,-86.9951 1053.95,-86.9951"/>
<text text-anchor="middle" x="1096" y="-87.9" style="font-family:Times New Roman;font-size:14.00;">children</text>
</g>
<!-- ModelSubmission&#45;&gt;CommentSubmission -->
<g id="edge38" class="edge"><title>ModelSubmission&#45;&gt;CommentSubmission</title>
<path style="fill:none;stroke:black;" d="M913,-174C918,-157 925,-137 930,-120"/>
<ellipse style="fill:none;stroke:black;" cx="911.97" cy="-178.119" rx="4.00001" ry="4.00001"/>
<polygon style="fill:black;stroke:black;" points="930.126,-119.578 937.31,-111.293 931.563,-114.789 933,-110 933,-110 933,-110 931.563,-114.789 928.69,-108.707 930.126,-119.578 930.126,-119.578"/>
</g>
<!-- Categorization -->
<g id="node26" class="node"><title>Categorization</title>
<ellipse style="fill:none;stroke:black;" cx="626" cy="-18" rx="81.9961" ry="18"/>
<text text-anchor="middle" x="626" y="-13.9" style="font-family:Times New Roman;font-size:14.00;">Categorization</text>
</g>
<!-- ModelSubmission&#45;&gt;Categorization -->
<g id="edge40" class="edge"><title>ModelSubmission&#45;&gt;Categorization</title>
<path style="fill:none;stroke:black;" d="M827,-186C750,-171 642,-145 618,-110 605,-91 609,-65 615,-46"/>
<ellipse style="fill:none;stroke:black;" cx="831.119" cy="-187.03" rx="4.00001" ry="4.00001"/>
<polygon style="fill:black;stroke:black;" points="615.126,-45.5783 622.31,-37.2931 616.563,-40.7891 618,-36 618,-36 618,-36 616.563,-40.7891 613.69,-34.7069 615.126,-45.5783 615.126,-45.5783"/>
</g>
<!-- Category -->
<g id="node29" class="node"><title>Category</title>
<ellipse style="fill:none;stroke:black;" cx="682" cy="-92" rx="54.8957" ry="18"/>
<text text-anchor="middle" x="682" y="-87.9" style="font-family:Times New Roman;font-size:14.00;">Category</text>
</g>
<!-- ModelSubmission&#45;&gt;Category -->
<g id="edge42" class="edge"><title>ModelSubmission&#45;&gt;Category</title>
<path style="fill:none;stroke:black;" d="M861,-179C820,-159 761,-131 722,-112"/>
<polygon style="fill:black;stroke:black;" points="860.862,-178.939 868.172,-187.112 865.431,-180.969 870,-183 870,-183 870,-183 865.431,-180.969 871.828,-178.888 860.862,-178.939 860.862,-178.939"/>
<polygon style="fill:black;stroke:black;" points="721.742,-111.856 715.185,-103.066 717.371,-109.428 713,-107 713,-107 713,-107 717.371,-109.428 710.815,-110.934 721.742,-111.856 721.742,-111.856"/>
</g>
<!-- ModelDatum -->
<g id="node57" class="node"><title>ModelDatum</title>
<ellipse style="fill:none;stroke:black;" cx="1213" cy="-92" rx="71.7694" ry="18"/>
<text text-anchor="middle" x="1213" y="-87.9" style="font-family:Times New Roman;font-size:14.00;">ModelDatum</text>
</g>
<!-- ModelSubmission&#45;&gt;ModelDatum -->
<g id="edge36" class="edge"><title>ModelSubmission&#45;&gt;ModelDatum</title>
<path style="fill:none;stroke:black;" d="M931,-177C951,-160 981,-139 1010,-128 1062,-107 1079,-119 1132,-110 1138,-109 1144,-107 1150,-106"/>
<ellipse style="fill:none;stroke:black;" cx="928.073" cy="-179.439" rx="4.00002" ry="4.00002"/>
<polygon style="fill:black;stroke:black;" points="1150.19,-105.961 1160.88,-108.413 1155.1,-104.981 1160,-104 1160,-104 1160,-104 1155.1,-104.981 1159.12,-99.5874 1150.19,-105.961 1150.19,-105.961"/>
<text text-anchor="middle" x="1053" y="-141.9" style="font-family:Times New Roman;font-size:14.00;">model_datas</text>
</g>
<!-- PageVariableSetting -->
<g id="node16" class="node"><title>PageVariableSetting</title>
<ellipse style="fill:none;stroke:black;" cx="2148" cy="-377" rx="107.206" ry="18"/>
<text text-anchor="middle" x="2148" y="-372.9" style="font-family:Times New Roman;font-size:14.00;">PageVariableSetting</text>
</g>
<!-- PageVariableSetting&#45;&gt;PageVariable -->
<g id="edge44" class="edge"><title>PageVariableSetting&#45;&gt;PageVariable</title>
<path style="fill:none;stroke:black;" d="M2146,-351C2144,-336 2143,-317 2142,-302"/>
<ellipse style="fill:none;stroke:black;" cx="2146.5" cy="-355.031" rx="4.00001" ry="4.00001"/>
<polygon style="fill:black;stroke:black;" points="2142,-301.95 2145.48,-291.552 2141.5,-296.975 2141,-292 2141,-292 2141,-292 2141.5,-296.975 2136.52,-292.448 2142,-301.95 2142,-301.95"/>
</g>
<!-- Page -->
<g id="node18" class="node"><title>Page</title>
<ellipse style="fill:none;stroke:black;" cx="1989" cy="-377" rx="34.0492" ry="18"/>
<text text-anchor="middle" x="1989" y="-372.9" style="font-family:Times New Roman;font-size:14.00;">Page</text>
</g>
<!-- Page&#45;&gt;ObjectForm -->
<g id="edge12" class="edge"><title>Page&#45;&gt;ObjectForm</title>
<path style="fill:none;stroke:black;" d="M1948,-368C1866,-348 1685,-306 1597,-286"/>
<polygon style="fill:none;stroke:black;" points="1947.51,-371.471 1958,-370 1948.88,-364.607 1947.51,-371.471"/>
</g>
<!-- Page&#45;&gt;PageVariable -->
<g id="edge50" class="edge"><title>Page&#45;&gt;PageVariable</title>
<path style="fill:none;stroke:black;" d="M2008,-354C2015,-346 2023,-337 2032,-330 2051,-315 2074,-303 2093,-294"/>
<ellipse style="fill:none;stroke:black;" cx="2004.83" cy="-357.172" rx="4.00002" ry="4.00002"/>
<polygon style="fill:black;stroke:black;" points="2092.86,-294.061 2103.83,-294.112 2097.43,-292.031 2102,-290 2102,-290 2102,-290 2097.43,-292.031 2100.17,-285.888 2092.86,-294.061 2092.86,-294.061"/>
</g>
<!-- Page&#45;&gt;View -->
<g id="edge20" class="edge"><title>Page&#45;&gt;View</title>
<path style="fill:none;stroke:black;" d="M1995,-349C1999,-331 2005,-308 2008,-292"/>
<polygon style="fill:none;stroke:black;" points="1991.53,-348.508 1993,-359 1998.39,-349.881 1991.53,-348.508"/>
</g>
<!-- Menu -->
<g id="node32" class="node"><title>Menu</title>
<ellipse style="fill:none;stroke:black;" cx="2292" cy="-274" rx="37.0233" ry="18"/>
<text text-anchor="middle" x="2292" y="-269.9" style="font-family:Times New Roman;font-size:14.00;">Menu</text>
</g>
<!-- Page&#45;&gt;Menu -->
<g id="edge48" class="edge"><title>Page&#45;&gt;Menu</title>
<path style="fill:none;stroke:black;" d="M2005,-353C2012,-345 2022,-336 2032,-330 2070,-308 2181,-301 2222,-292 2231,-290 2242,-287 2251,-285"/>
<ellipse style="fill:none;stroke:black;" cx="2002.32" cy="-356.745" rx="4.00002" ry="4.00002"/>
<ellipse style="fill:black;stroke:black;" cx="2255.12" cy="-283.97" rx="4.00001" ry="4.00001"/>
</g>
<!-- Ckeditor::Picture -->
<g id="node19" class="node"><title>Ckeditor::Picture</title>
<ellipse style="fill:none;stroke:black;" cx="2511" cy="-274" rx="91.2232" ry="18"/>
<text text-anchor="middle" x="2511" y="-269.9" style="font-family:Times New Roman;font-size:14.00;">Ckeditor::Picture</text>
</g>
<!-- Ckeditor::Asset -->
<g id="node20" class="node"><title>Ckeditor::Asset</title>
<ellipse style="fill:none;stroke:black;" cx="2712" cy="-377" rx="82.8866" ry="18"/>
<text text-anchor="middle" x="2712" y="-372.9" style="font-family:Times New Roman;font-size:14.00;">Ckeditor::Asset</text>
</g>
<!-- Ckeditor::Asset&#45;&gt;Ckeditor::Picture -->
<g id="edge52" class="edge"><title>Ckeditor::Asset&#45;&gt;Ckeditor::Picture</title>
<path style="fill:none;stroke:black;" d="M2670,-355C2633,-336 2578,-309 2544,-291"/>
<polygon style="fill:none;stroke:black;" points="2668.56,-358.203 2679,-360 2671.96,-352.084 2668.56,-358.203"/>
</g>
<!-- Ckeditor::AttachmentFile -->
<g id="node21" class="node"><title>Ckeditor::AttachmentFile</title>
<ellipse style="fill:none;stroke:black;" cx="2750" cy="-274" rx="130.137" ry="18"/>
<text text-anchor="middle" x="2750" y="-269.9" style="font-family:Times New Roman;font-size:14.00;">Ckeditor::AttachmentFile</text>
</g>
<!-- Ckeditor::Asset&#45;&gt;Ckeditor::AttachmentFile -->
<g id="edge54" class="edge"><title>Ckeditor::Asset&#45;&gt;Ckeditor::AttachmentFile</title>
<path style="fill:none;stroke:black;" d="M2723,-349C2729,-331 2738,-308 2743,-292"/>
<polygon style="fill:none;stroke:black;" points="2719.46,-348.415 2719,-359 2725.96,-351.015 2719.46,-348.415"/>
</g>
<!-- FormSubmission&#45;&gt;FormDatum -->
<g id="edge56" class="edge"><title>FormSubmission&#45;&gt;FormDatum</title>
<path style="fill:none;stroke:black;" d="M1469,-176C1485,-159 1506,-135 1523,-118"/>
<ellipse style="fill:none;stroke:black;" cx="1465.83" cy="-179.172" rx="4.00002" ry="4.00002"/>
<polygon style="fill:black;stroke:black;" points="1523.41,-117.526 1533.39,-112.963 1526.71,-113.763 1530,-110 1530,-110 1530,-110 1526.71,-113.763 1526.61,-107.037 1523.41,-117.526 1523.41,-117.526"/>
</g>
<!-- Menuset -->
<g id="node24" class="node"><title>Menuset</title>
<ellipse style="fill:none;stroke:black;" cx="2325" cy="-377" rx="52.1162" ry="18"/>
<text text-anchor="middle" x="2325" y="-372.9" style="font-family:Times New Roman;font-size:14.00;">Menuset</text>
</g>
<!-- Menuset&#45;&gt;Menu -->
<g id="edge58" class="edge"><title>Menuset&#45;&gt;Menu</title>
<path style="fill:none;stroke:black;" d="M2317,-351C2312,-336 2306,-317 2301,-302"/>
<ellipse style="fill:none;stroke:black;" cx="2318.03" cy="-355.119" rx="4.00001" ry="4.00001"/>
<polygon style="fill:black;stroke:black;" points="2300.87,-301.578 2302.31,-290.707 2299.44,-296.789 2298,-292 2298,-292 2298,-292 2299.44,-296.789 2293.69,-293.293 2300.87,-301.578 2300.87,-301.578"/>
</g>
<!-- Asset -->
<g id="node28" class="node"><title>Asset</title>
<ellipse style="fill:none;stroke:black;" cx="2850" cy="-377" rx="37.0233" ry="18"/>
<text text-anchor="middle" x="2850" y="-372.9" style="font-family:Times New Roman;font-size:14.00;">Asset</text>
</g>
<!-- Category&#45;&gt;Categorization -->
<g id="edge60" class="edge"><title>Category&#45;&gt;Categorization</title>
<path style="fill:none;stroke:black;" d="M664,-68C658,-61 651,-52 645,-44"/>
<ellipse style="fill:none;stroke:black;" cx="666.439" cy="-70.9271" rx="4.00002" ry="4.00002"/>
<polygon style="fill:black;stroke:black;" points="645,-44 642.6,-33.3 642,-40 639,-36 639,-36 639,-36 642,-40 635.4,-38.7 645,-44 645,-44"/>
</g>
<!-- Category&#45;&gt;Category -->
<g id="edge62" class="edge"><title>Category&#45;&gt;Category</title>
<path style="fill:none;stroke:black;" d="M741,-98C750,-97 755,-95 755,-92 755,-89 751,-87 743,-86"/>
<ellipse style="fill:none;stroke:black;" cx="736.969" cy="-98.5038" rx="4.00001" ry="4.00001"/>
<polygon style="fill:black;stroke:black;" points="742.95,-85.9951 733.448,-80.5223 737.975,-85.4976 733,-85 733,-85 733,-85 737.975,-85.4976 732.552,-89.4777 742.95,-85.9951 742.95,-85.9951"/>
<text text-anchor="middle" x="783" y="-87.9" style="font-family:Times New Roman;font-size:14.00;">children</text>
</g>
<!-- Role -->
<g id="node30" class="node"><title>Role</title>
<ellipse style="fill:none;stroke:black;" cx="297" cy="-377" rx="30.7734" ry="18"/>
<text text-anchor="middle" x="297" y="-372.9" style="font-family:Times New Roman;font-size:14.00;">Role</text>
</g>
<!-- Role&#45;&gt;PermissionRole -->
<g id="edge66" class="edge"><title>Role&#45;&gt;PermissionRole</title>
<path style="fill:none;stroke:black;" d="M317,-355C324,-347 333,-338 342,-330 354,-319 369,-307 381,-297"/>
<ellipse style="fill:none;stroke:black;" cx="314.561" cy="-357.927" rx="4.00002" ry="4.00002"/>
<polygon style="fill:black;stroke:black;" points="381,-297 391.7,-294.6 385,-294 389,-291 389,-291 389,-291 385,-294 386.3,-287.4 381,-297 381,-297"/>
</g>
<!-- User -->
<g id="node35" class="node"><title>User</title>
<ellipse style="fill:none;stroke:black;" cx="280" cy="-274" rx="32.8565" ry="18"/>
<text text-anchor="middle" x="280" y="-269.9" style="font-family:Times New Roman;font-size:14.00;">User</text>
</g>
<!-- Role&#45;&gt;User -->
<g id="edge64" class="edge"><title>Role&#45;&gt;User</title>
<path style="fill:none;stroke:black;" d="M293,-351C291,-336 287,-317 285,-302"/>
<ellipse style="fill:none;stroke:black;" cx="293.504" cy="-355.031" rx="4.00001" ry="4.00001"/>
<polygon style="fill:black;stroke:black;" points="284.961,-301.806 287.413,-291.117 283.981,-296.903 283,-292 283,-292 283,-292 283.981,-296.903 278.587,-292.883 284.961,-301.806 284.961,-301.806"/>
</g>
<!-- Categoryset -->
<g id="node31" class="node"><title>Categoryset</title>
<ellipse style="fill:none;stroke:black;" cx="847" cy="-377" rx="68.9883" ry="18"/>
<text text-anchor="middle" x="847" y="-372.9" style="font-family:Times New Roman;font-size:14.00;">Categoryset</text>
</g>
<!-- Categoryset&#45;&gt;ObjectModel -->
<g id="edge70" class="edge"><title>Categoryset&#45;&gt;ObjectModel</title>
<path style="fill:none;stroke:black;" d="M894,-359C941,-340 1014,-312 1062,-293"/>
<ellipse style="fill:none;stroke:black;" cx="889.745" cy="-360.595" rx="4.00001" ry="4.00001"/>
<polygon style="fill:black;stroke:black;" points="1061.86,-293.061 1072.83,-293.112 1066.43,-291.031 1071,-289 1071,-289 1071,-289 1066.43,-291.031 1069.17,-284.888 1061.86,-293.061 1061.86,-293.061"/>
</g>
<!-- Categoryset&#45;&gt;Category -->
<g id="edge68" class="edge"><title>Categoryset&#45;&gt;Category</title>
<path style="fill:none;stroke:black;" d="M833,-352C802,-299 730,-174 697,-119"/>
<ellipse style="fill:none;stroke:black;" cx="835.015" cy="-355.527" rx="4.00002" ry="4.00002"/>
<polygon style="fill:black;stroke:black;" points="696.856,-118.742 695.934,-107.815 694.428,-114.371 692,-110 692,-110 692,-110 694.428,-114.371 688.066,-112.185 696.856,-118.742 696.856,-118.742"/>
</g>
<!-- Menu&#45;&gt;Menu -->
<g id="edge72" class="edge"><title>Menu&#45;&gt;Menu</title>
<path style="fill:none;stroke:black;" d="M2335,-280C2342,-279 2347,-277 2347,-274 2347,-271 2343,-269 2337,-268"/>
<ellipse style="fill:none;stroke:black;" cx="2330.97" cy="-280.504" rx="4.00001" ry="4.00001"/>
<polygon style="fill:black;stroke:black;" points="2336.95,-267.995 2327.45,-262.522 2331.98,-267.498 2327,-267 2327,-267 2327,-267 2331.98,-267.498 2326.55,-271.478 2336.95,-267.995 2336.95,-267.995"/>
<text text-anchor="middle" x="2374" y="-269.9" style="font-family:Times New Roman;font-size:14.00;">children</text>
</g>
<!-- Setting -->
<g id="node33" class="node"><title>Setting</title>
<ellipse style="fill:none;stroke:black;" cx="2951" cy="-377" rx="45.8622" ry="18"/>
<text text-anchor="middle" x="2951" y="-372.9" style="font-family:Times New Roman;font-size:14.00;">Setting</text>
</g>
<!-- User&#45;&gt;UserDetail -->
<g id="edge74" class="edge"><title>User&#45;&gt;UserDetail</title>
<path style="fill:none;stroke:black;" d="M313,-259C316,-258 319,-257 322,-256 369,-239 424,-225 463,-214"/>
<ellipse style="fill:none;stroke:black;" cx="308.745" cy="-260.595" rx="4.00001" ry="4.00001"/>
<polygon style="fill:black;stroke:black;" points="463.194,-213.961 473.883,-216.413 468.097,-212.981 473,-212 473,-212 473,-212 468.097,-212.981 472.117,-207.587 463.194,-213.961 463.194,-213.961"/>
</g>
<!-- ModelComponent&#45;&gt;ModelDatum -->
<g id="edge76" class="edge"><title>ModelComponent&#45;&gt;ModelDatum</title>
<path style="fill:none;stroke:black;" d="M1101,-174C1098,-159 1097,-142 1106,-128 1112,-119 1130,-112 1149,-107"/>
<ellipse style="fill:none;stroke:black;" cx="1102.03" cy="-178.119" rx="4.00001" ry="4.00001"/>
<polygon style="fill:black;stroke:black;" points="1149.42,-106.874 1160.29,-108.31 1154.21,-105.437 1159,-104 1159,-104 1159,-104 1154.21,-105.437 1157.71,-99.6898 1149.42,-106.874 1149.42,-106.874"/>
<text text-anchor="middle" x="1149" y="-141.9" style="font-family:Times New Roman;font-size:14.00;">model_datas</text>
</g>
<!-- UserDetailSetting -->
<g id="node37" class="node"><title>UserDetailSetting</title>
<ellipse style="fill:none;stroke:black;" cx="609" cy="-274" rx="96.0882" ry="18"/>
<text text-anchor="middle" x="609" y="-269.9" style="font-family:Times New Roman;font-size:14.00;">UserDetailSetting</text>
</g>
<!-- UserDetailSetting&#45;&gt;UserDetail -->
<g id="edge78" class="edge"><title>UserDetailSetting&#45;&gt;UserDetail</title>
<path style="fill:none;stroke:black;" d="M582,-251C572,-242 560,-232 550,-224"/>
<ellipse style="fill:none;stroke:black;" cx="584.927" cy="-253.439" rx="4.00002" ry="4.00002"/>
<polygon style="fill:black;stroke:black;" points="549.526,-223.585 544.963,-213.613 545.763,-220.293 542,-217 542,-217 542,-217 545.763,-220.293 539.037,-220.387 549.526,-223.585 549.526,-223.585"/>
</g>
<!-- ModelData -->
<g id="node38" class="node"><title>ModelData</title>
<ellipse style="fill:none;stroke:black;" cx="3077" cy="-377" rx="62.0391" ry="18"/>
<text text-anchor="middle" x="3077" y="-372.9" style="font-family:Times New Roman;font-size:14.00;">ModelData</text>
</g>
</g>
</svg>
